<svg xmlns="http://www.w3.org/2000/svg" width="960" height="240" viewBox="0 0 960 240" role="img" aria-label="NUSV LITE banner">
  <defs>
    <linearGradient id="bg" x1="0" y1="0" x2="1" y2="1">
      <stop offset="0" stop-color="#1e3a8a"/>
      <stop offset="0.55" stop-color="#1e40af"/>
      <stop offset="1" stop-color="#0f172a"/>
    </linearGradient>
    <radialGradient id="glow" cx="0.85" cy="0.18" r="0.7">
      <stop offset="0" stop-color="#22d3ee" stop-opacity="0.5"/>
      <stop offset="1" stop-color="#22d3ee" stop-opacity="0"/>
    </radialGradient>
    <pattern id="grid" width="40" height="40" patternUnits="userSpaceOnUse">
      <path d="M 40 0 L 0 0 0 40" fill="none" stroke="#67e8f9" stroke-opacity="0.05" stroke-width="1"/>
    </pattern>
  </defs>
  <rect width="960" height="240" rx="24" fill="url(#bg)"/>
  <rect width="960" height="240" rx="24" fill="url(#glow)"/>
  <rect width="960" height="240" rx="24" fill="url(#grid)"/>
  <g transform="translate(730, 120)">
    <rect x="-38" y="-38" width="76" height="76" rx="16" fill="#0f172a" stroke="#22d3ee" stroke-opacity="0.6" stroke-width="2.5"/>
    <rect x="26" y="-28" width="34" height="34" rx="9" fill="#22d3ee" fill-opacity="0.25" stroke="#22d3ee" stroke-opacity="0.6" stroke-width="2"/>
    <circle cx="0" cy="-8" r="7" fill="#22d3ee"/>
    <circle cx="18" cy="10" r="7" fill="#38bdf8"/>
    <circle cx="-18" cy="10" r="7" fill="#a78bfa"/>
  </g>
  <text x="64" y="110" font-family="'Segoe UI', -apple-system, Helvetica, Arial, sans-serif" font-size="64" font-weight="800" fill="#ffffff">NUSV LITE</text>
  <text x="66" y="148" font-family="'Segoe UI', -apple-system, Helvetica, Arial, sans-serif" font-size="23" fill="#7dd3fc">The NUSV universe, in your pocket</text>
  <text x="66" y="178" font-family="'Segoe UI', -apple-system, Helvetica, Arial, sans-serif" font-size="16" fill="#94a3b8">Official Android client - widgets - games - theme store - daily check-in</text>
  <g transform="translate(64, 202)">
    <rect width="212" height="24" rx="12" fill="#ffffff" fill-opacity="0.1"/>
    <text x="106" y="16" text-anchor="middle" font-family="'Segoe UI', -apple-system, Helvetica, Arial, sans-serif" font-size="11" letter-spacing="2" fill="#a5f3fc">UNITED SCIENCE VACA</text>
  </g>
</svg>
